<svg version="1.2" xmlns="http://www.w3.org/2000/svg" viewBox="0 0 6200 1000" width="6200" height="1000"><style>.a{fill:#fff}</style><path class="a" d="m159.7 716q-29.1 0-53.1-13.6-23-14.8-37.6-38.4-13.6-23.7-13.6-51.8v-256.4q0-28.3 13.6-51.8 14.6-23.6 37.6-37.6 24-14.4 53.1-14.4h281.6v-152h86.3v616zm2.6-86.3h259.2q8.1 0 13.9-5.7 5.9-6 5.9-14.1v-251.8q0-8.1-5.9-13.3-5.8-6.5-13.9-6.5h-259.2q-8.1 0-14.1 6.5-5.7 5.2-5.7 13.3v251.8q0 8.1 5.7 14.1 6 5.7 14.1 5.7zm535.3 86.3q-28.4 0-52.6-13.6-23-14.8-37.6-37.6-13.6-24.3-13.6-52.6v-360.2h86.3v357.9q0 8.1 5.7 14.1 6 5.7 14.1 5.7h259.2q8.1 0 13.9-5.7 6.4-6 6.4-14.1v-357.9h86.3v360.2q0 28.3-14.3 52.6-13.8 22.8-37.6 37.6-23.3 13.6-52.4 13.6zm805.9 0h-368.1v-616h86.3v152h281.8q28.4 0 51.9 14.4 23.8 14 37.6 37.6 14.3 23.5 14.3 51.8v256.4q0 28.3-14.3 52.6-13.8 22.8-37.6 37.6-23.5 13.6-51.9 13.6zm-261.4-86.3h259.1q8.1 0 13.4-5.7 6.4-6 6.4-14.1v-251.8q0-8.1-6.4-13.3-5.3-6.5-13.4-6.5h-259.1q-8.2 0-14.7 6.5-5.7 5.2-5.7 13.3v251.8q0 8.1 5.7 14.1 6.5 5.7 14.7 5.7zm795 86.3h-368.1v-616h86.3v152h281.8q28.4 0 51.9 14.4 23.8 14 37.6 37.6 14.3 23.5 14.3 51.8v256.4q0 28.3-14.3 52.6-13.8 22.8-37.6 37.6-23.5 13.6-51.9 13.6zm-261.4-86.3h259.1q8.1 0 13.4-5.7 6.4-6 6.4-14.1v-251.8q0-8.1-6.4-13.3-5.3-6.5-13.4-6.5h-259.1q-8.2 0-14.7 6.5-5.7 5.2-5.7 13.3v251.8q0 8.1 5.7 14.1 6.5 5.7 14.7 5.7zm511.6 86.3h-86.3v-464h86.3zm0-529.4h-86.3v-86.6h86.3zm178.4 529.4h-86.3v-464h368.1q28.4 0 51.9 14.4 23.8 14 37.6 37.6 14.3 23.5 14.3 51.8v360.2h-86.3v-357.9q0-8.1-6.4-13.3-5.3-6.5-13.4-6.5h-259.1q-8.2 0-14.7 6.5-5.7 5.2-5.7 13.3zm824.8 183.2h-286.7v-87.1h284.4q8.1 0 13.6-5.7 6.2-6 6.2-14.1v-76.3h-281.3q-28.4 0-52.1-13.6-23.6-14.7-38.4-38.4-13.6-23.6-13.6-51.8v-256.4q0-28.2 13.6-51.8 14.9-23.5 38.4-37.6 23.7-14.4 52.1-14.4h263.8q29.1 0 52.1 14.4 24.1 14.1 37.6 37.6 14.1 23.6 14.1 51.8v439.1q0 29.1-14.1 53.1-13.4 23-37.6 37.6-23.1 13.6-52.1 13.6zm-261.8-269.5h259.5q8.1 0 13.6-5.7 6.2-6 6.2-14.1v-251.7q0-8.2-6.2-13.4-5.5-6.5-13.6-6.5h-259.5q-8.1 0-14.1 6.5-5.7 5.2-5.7 13.4v251.7q0 8.1 5.7 14.1 6 5.7 14.1 5.7zm537 86.3h-86.3v-86.3h86.3zm175.2 0h-86.3v-360.2q0-28.3 13.6-51.8 14.9-23.6 38.4-37.6 23.7-14.4 52.1-14.4h259.1v86.3h-257.1q-8.1 0-14.1 6.5-5.7 5.2-5.7 13.3zm429.5 0q-28.2 0-52.6-13.6-22.7-14.8-37.6-37.6-13.6-24.3-13.6-52.6v-256.4q0-28.2 13.6-51.8 14.9-23.5 37.6-37.6 24.4-14.4 52.6-14.4h263.8q29.1 0 52.4 14.4 23.7 14 37.6 38.4 14.3 22.9 14.3 51v256.4q0 28.3-14.3 52.6-13.8 22.8-37.6 37.6-23.3 13.6-52.4 13.6zm2.4-86.3h259.1q8.1 0 13.9-5.7 5.9-6 5.9-14.1v-251.7q0-8.1-5.9-13.4-5.8-6.4-13.9-6.4h-259.1q-8.2 0-14.2 6.4-5.7 5.3-5.7 13.4v251.7q0 8.1 5.7 14.1 6 5.7 14.2 5.7zm551.2 86.3q-28.2 0-52.6-13.6-22.7-14.8-37.6-37.6-13.6-24.3-13.6-52.6v-256.4q0-28.2 13.6-51.8 14.9-23.5 37.6-37.6 24.4-14.4 52.6-14.4h366.8v86.4h-364.4q-8.2 0-14.2 6.4-5.7 5.3-5.7 13.4v251.7q0 8.1 5.7 14.1 6 5.7 14.2 5.7h365.7v86.3zm522.6 0h-86.4v-616h86.4v340.7h104l173.4-188.7h99.8v15.7l-196.7 216.3 196.2 216.4v15.6h-99.3l-173.4-188.7h-104zm529.4 0q-28.2 0-52.6-13.6-22.7-14.8-37.6-37.6-13.6-24.3-13.6-52.6v-12.5h86.4v10.2q0 8.1 5.6 14.1 6 5.7 14.2 5.7h259.1q8.1 0 13.9-5.7 5.9-6 5.9-14.1v-62.7q0-8.2-5.9-13.6-5.8-6.2-13.9-6.2h-261.5q-28.2 0-52.6-13.8-22.7-14.7-37.6-37.6-13.6-24.2-13.6-52.4v-67.7q0-28.3 13.6-51.9 14.9-23.5 37.6-37.6 24.4-14.4 52.6-14.4h263.8q29.1 0 52.4 14.4 23.8 14.1 37.6 37.6 14.7 23.6 14.7 51.9v12.5h-87.2v-10.2q0-8.1-5.9-13.4-5.8-6.4-13.9-6.4h-259.1q-8.2 0-14.2 6.4-5.6 5.3-5.6 13.4v62.7q0 8.2 5.6 14.3 6 5.5 14.2 5.5h261.4q29.1 0 52.4 14.5 23.8 14 37.6 37.6 14.7 23.5 14.7 51.7v67.7q0 28.3-14.7 52.6-13.8 22.8-37.6 37.6-23.3 13.6-52.4 13.6z"/></svg>